# xmcd
#
# Track frame offsets: 
#        150
#        29593
#        46112
#        58245
#        76458
#        95992
#        109089
#        125556
#        141394
#        164345
#        182716
#
# Disc length: 2645 seconds
#
# Revision: 5
# Processed by: cddbd v1.5.2PL0 Copyright (c) Steve Scherf et al.
# Submitted via: ExactAudioCopyFreeDBPlugin 1.0
#
DISCID=a10a530b
DTITLE=Kenny Chesney - Hemingway's Whiskey
DYEAR=2010
DGENRE=Country
TTITLE0=The Boys of Fall
TTITLE1=Live a Little
TTITLE2=Coastal
TTITLE3=You And Tequila (feat. Grace Potter)
TTITLE4=Seven Days
TTITLE5=Small Y'all (Duet with George Jones)
TTITLE6=Where I Grew Up
TTITLE7=Reality
TTITLE8=Round And Round
TTITLE9=Somewhere With You
TTITLE10=Hemingway's Whiskey
EXTD=
EXTT0=
EXTT1=
EXTT2=
EXTT3=
EXTT4=
EXTT5=
EXTT6=
EXTT7=
EXTT8=
EXTT9=
EXTT10=
PLAYORDER=
